<?xml version="1.0" encoding="UTF-8" standalone="no"?>
<!-- Created with Inkscape (http://www.inkscape.org/) -->

<svg
   xmlns:dc="http://purl.org/dc/elements/1.1/"
   xmlns:cc="http://creativecommons.org/ns#"
   xmlns:rdf="http://www.w3.org/1999/02/22-rdf-syntax-ns#"
   xmlns:svg="http://www.w3.org/2000/svg"
   xmlns="http://www.w3.org/2000/svg"
   version="1.1"
   width="892.91339"
   height="291.61417"
   id="svg5069"
   xml:space="preserve"><metadata
     id="metadata5075"><rdf:RDF><cc:Work
         rdf:about=""><dc:format>image/svg+xml</dc:format><dc:type
           rdf:resource="http://purl.org/dc/dcmitype/StillImage" /><dc:title></dc:title></cc:Work></rdf:RDF></metadata><defs
     id="defs5073"><clipPath
       id="clipPath5319"><path
         d="M 0,0 612,0 612,792 0,792 0,0 z"
         id="path5321" /></clipPath><clipPath
       id="clipPath5343"><path
         d="M 0,0 612,0 612,792 0,792 0,0 z"
         id="path5345" /></clipPath><clipPath
       id="clipPath5363"><path
         d="M 0,0 612,0 612,792 0,792 0,0 z"
         id="path5365" /></clipPath><clipPath
       id="clipPath5395"><path
         d="M 0,0 612,0 612,792 0,792 0,0 z"
         id="path5397" /></clipPath><clipPath
       id="clipPath5423"><path
         d="M 0,0 612,0 612,792 0,792 0,0 z"
         id="path5425" /></clipPath><clipPath
       id="clipPath5443"><path
         d="M 0,0 612,0 612,792 0,792 0,0 z"
         id="path5445" /></clipPath></defs><g
     transform="matrix(1.25,0,0,-1.25,53.573274,686.95555)"
     id="g5077"><g
       transform="matrix(5.1168523,0,0,5.1168523,-554.13822,-58.311041)"
       id="g5716"><g
         id="g5315"><g
           clip-path="url(#clipPath5319)"
           id="g5317"><g
             transform="translate(133.70171,112.86549)"
             id="g5323"><path
               d="m 0,0 2.485,-8.947 -5.15,0 L 0,0 z m -4.524,-15.215 -2.265,-7.424 13.235,0 -2.131,7.424 -8.839,0 z m 34.536,20.581 -25.401,0 0,-7.972 8.014,0 0,-20.033 12.898,0 c -0.798,0.491 -6.27,4.833 -6.27,12.942 0,6.74 4.088,13.334 10.759,15.063 m 4.406,-20.833 c 2.997,0 5.402,2.488 5.402,5.631 0,3.124 -2.255,5.953 -5.294,5.953 -3.05,0 -5.45,-2.829 -5.45,-5.953 0,-3.143 2.254,-5.631 5.342,-5.631 m 26.641,3.23 -5.158,17.603 -13.2,0 0,-28.005 8.245,0 0,17.554 0.058,0 5.111,-17.554 13.314,0 0,28.005 -8.318,0 0,-17.603 -0.052,0 z m -78.308,-10.402 2.38,7.852 -8.832,0 0,2.373 9.557,0 2.268,7.528 -11.825,0 0,2.28 12.485,0 2.407,7.972 -24.418,0 0,-28.005 15.978,0 z"
               id="path5325"
               style="fill:#1478c7;fill-opacity:1;fill-rule:nonzero;stroke:none" /></g><g
             transform="translate(124.62131,83.589096)"
             id="g5327"><path
               d="M 0,0 2.12,0 C 2.762,0 3.803,-0.084 3.423,-1.872 3.094,-3.425 2.44,-4.132 1.113,-4.132 l -1.305,0 -0.765,-3.596 -0.685,0 L 0,0 z m -0.07,-3.553 1.274,0 c 0.717,0 1.25,0.342 1.507,1.552 0.28,1.316 -0.264,1.423 -0.886,1.423 l -1.262,0 -0.633,-2.975 z"
               id="path5329"
               style="fill:#231f20;fill-opacity:1;fill-rule:nonzero;stroke:none" /></g><g
             transform="translate(127.9352,77.981506)"
             id="g5331"><path
               d="m 0,0 0.273,1.284 c 0.145,0.684 0.459,2.108 2.311,2.108 1.852,0 1.56,-1.424 1.414,-2.108 L 3.725,0 C 3.427,-1.403 2.77,-2.227 1.389,-2.227 0.009,-2.227 -0.298,-1.403 0,0 M 2.743,-0.996 C 2.907,-0.728 3.135,0.245 3.208,0.588 3.547,2.182 3.534,2.879 2.474,2.879 1.415,2.879 1.107,2.182 0.768,0.588 0.695,0.245 0.509,-0.728 0.559,-0.996 c 0.026,-0.129 0.051,-0.718 0.94,-0.718 0.888,0 1.163,0.589 1.244,0.718"
               id="path5333"
               style="fill:#231f20;fill-opacity:1;fill-rule:nonzero;stroke:none" /></g></g></g><g
         transform="translate(132.91679,81.2668)"
         id="g5335"><path
           d="m 0,0 0.685,0 0.204,-4.731 0.021,0 2.151,4.731 0.793,0 0.193,-4.731 0.021,0 L 6.283,0 6.926,0 4.289,-5.406 l -0.803,0 -0.205,4.625 -0.022,0 -2.117,-4.625 -0.803,0 L 0,0 z"
           id="path5337"
           style="fill:#231f20;fill-opacity:1;fill-rule:nonzero;stroke:none" /></g><g
         id="g5339"><g
           clip-path="url(#clipPath5343)"
           id="g5341"><g
             transform="translate(140.4599,78.430496)"
             id="g5347"><path
               d="m 0,0 -0.089,-0.418 c -0.159,-0.749 -0.168,-1.744 0.85,-1.744 0.802,0 1.308,0.513 1.452,1.242 l 0.674,0 C 2.535,-2.227 1.733,-2.676 0.651,-2.676 c -0.931,0 -1.782,0.374 -1.434,2.013 l 0.281,1.326 C -0.169,2.226 0.637,2.944 1.846,2.944 3.708,2.944 3.424,1.605 3.082,0 L 0,0 z M 2.55,0.514 C 2.805,1.712 2.764,2.43 1.736,2.43 0.709,2.43 0.364,1.712 0.109,0.514 l 2.441,0 z"
               id="path5349"
               style="fill:#231f20;fill-opacity:1;fill-rule:nonzero;stroke:none" /></g><g
             transform="translate(145.8644,80.5392)"
             id="g5351"><path
               d="M 0,0 0.022,0 C 0.398,0.513 1.034,0.835 1.687,0.835 L 1.548,0.182 c -0.894,0.075 -1.609,-0.471 -1.803,-1.38 l -0.739,-3.48 -0.642,0 1.149,5.406 0.642,0 L 0,0 z"
               id="path5353"
               style="fill:#231f20;fill-opacity:1;fill-rule:nonzero;stroke:none" /></g></g></g><g
         transform="translate(147.1107,75.861206)"
         id="g5355"><path
           d="m 0,0 1.149,5.406 0.642,0 L 0.642,0 0,0 z m 1.395,6.914 0.173,0.814 0.792,0 -0.173,-0.814 -0.792,0 z"
           id="path5357"
           style="fill:#231f20;fill-opacity:1;fill-rule:nonzero;stroke:none" /></g><g
         id="g5359"><g
           clip-path="url(#clipPath5363)"
           id="g5361"><g
             transform="translate(149.85899,75.861206)"
             id="g5367"><path
               d="m 0,0 -0.642,0 1.149,5.406 0.643,0 -0.142,-0.664 0.022,0 c 0.406,0.449 0.891,0.771 1.469,0.771 1.339,0 1.266,-0.996 1.116,-1.702 L 2.805,0 2.162,0 2.966,3.778 C 3.1,4.41 2.979,5 2.229,5 1.651,5 0.978,4.603 0.722,3.393 L 0,0 z"
               id="path5369"
               style="fill:#231f20;fill-opacity:1;fill-rule:nonzero;stroke:none" /></g><g
             transform="translate(158.12489,81.278198)"
             id="g5371"><path
               d="M 0,0 0.632,0 C 0.502,-0.515 0.434,-0.782 0.374,-1.061 l -0.967,-4.548 c -0.252,-1.189 -0.766,-1.896 -2.307,-1.896 -1.349,0 -1.414,0.954 -1.255,1.499 l 0.642,0 c -0.175,-0.62 0.208,-0.984 0.808,-0.984 1.252,0 1.32,0.674 1.663,2.29 l -0.021,0 c -0.376,-0.459 -0.93,-0.653 -1.444,-0.653 -1.553,0 -1.375,1.338 -1.12,2.537 0.266,1.252 0.279,1.263 0.551,1.842 0.102,0.224 0.656,1.07 1.748,1.07 0.546,0 1.033,-0.278 1.166,-0.76 L -0.146,-0.685 0,0 z m -2.937,-2.59 c -0.239,-1.125 -0.478,-2.249 0.688,-2.249 0.536,0 0.954,0.353 1.104,0.61 0.25,0.417 0.345,0.664 0.682,2.248 0.241,1.135 -0.278,1.564 -0.878,1.564 -1.113,0 -1.425,-1.371 -1.596,-2.173"
               id="path5373"
               style="fill:#231f20;fill-opacity:1;fill-rule:nonzero;stroke:none" /></g><g
             transform="translate(161.26601,75.861206)"
             id="g5375"><path
               d="m 0,0 1.643,7.728 2.151,0 C 5.004,7.728 5.52,7.236 5.231,5.876 5.033,4.946 4.747,4.303 3.716,4.035 L 3.711,4.014 C 4.682,3.799 4.807,3.125 4.6,2.151 4.304,0.76 3.479,0 2.184,0 L 0,0 z m 0.808,0.578 1.092,0 c 1.134,0 1.762,0.386 2.003,1.52 0.146,0.685 0.14,1.617 -1.037,1.617 l -1.391,0 -0.667,-3.137 z m 2.106,3.714 c 0.984,0 1.438,0.675 1.625,1.552 C 4.812,7.129 4.11,7.15 3.564,7.15 l -1.359,0 -0.608,-2.858 1.317,0 z"
               id="path5377"
               style="fill:#231f20;fill-opacity:1;fill-rule:nonzero;stroke:none" /></g><g
             transform="translate(171.08591,81.2668)"
             id="g5379"><path
               d="m 0,0 -1.15,-5.406 -0.556,0 0.128,0.601 -0.021,0 c -0.473,-0.462 -0.911,-0.707 -1.51,-0.707 -1.113,0 -1.251,0.813 -1.065,1.691 L -3.361,0 -2.72,0 -3.508,-3.714 c -0.032,-0.149 -0.306,-1.285 0.626,-1.285 0.867,0 1.349,0.814 1.43,1.189 L -0.642,0 0,0 z"
               id="path5381"
               style="fill:#231f20;fill-opacity:1;fill-rule:nonzero;stroke:none" /></g><g
             transform="translate(172.62131,75.755005)"
             id="g5383"><path
               d="m 0,0 c -1.167,0 -1.507,0.567 -1.252,1.712 l 0.653,0 C -0.756,0.973 -0.689,0.48 0.135,0.48 c 0.62,0 0.995,0.355 1.123,0.954 0.3,1.413 -2.208,1.049 -1.828,2.836 0.212,0.996 0.972,1.349 1.914,1.349 1.071,0 1.256,-0.739 1.081,-1.562 l -0.631,0 C 1.907,4.741 1.803,5.106 1.075,5.106 0.615,5.106 0.187,4.805 0.084,4.324 -0.202,2.975 2.305,3.339 1.92,1.53 1.704,0.513 1.006,0 0,0"
               id="path5385"
               style="fill:#231f20;fill-opacity:1;fill-rule:nonzero;stroke:none" /></g></g></g><g
         transform="translate(175.4146,75.861206)"
         id="g5387"><path
           d="m 0,0 1.149,5.406 0.642,0 L 0.642,0 0,0 z m 1.395,6.914 0.173,0.814 0.792,0 -0.173,-0.814 -0.792,0 z"
           id="path5389"
           style="fill:#231f20;fill-opacity:1;fill-rule:nonzero;stroke:none" /></g><g
         id="g5391"><g
           clip-path="url(#clipPath5395)"
           id="g5393"><g
             transform="translate(178.1763,75.861206)"
             id="g5399"><path
               d="m 0,0 -0.642,0 1.148,5.406 0.643,0 -0.141,-0.664 0.021,0 c 0.406,0.449 0.892,0.771 1.47,0.771 1.338,0 1.266,-0.996 1.116,-1.702 L 2.805,0 2.162,0 2.966,3.778 C 3.1,4.41 2.978,5 2.229,5 1.651,5 0.978,4.603 0.721,3.393 L 0,0 z"
               id="path5401"
               style="fill:#231f20;fill-opacity:1;fill-rule:nonzero;stroke:none" /></g><g
             transform="translate(183.45551,78.430496)"
             id="g5403"><path
               d="m 0,0 -0.089,-0.418 c -0.159,-0.749 -0.168,-1.744 0.85,-1.744 0.802,0 1.308,0.513 1.451,1.242 l 0.675,0 C 2.535,-2.227 1.733,-2.676 0.651,-2.676 c -0.931,0 -1.782,0.374 -1.434,2.013 l 0.281,1.326 C -0.169,2.226 0.637,2.944 1.846,2.944 3.708,2.944 3.424,1.605 3.082,0 L 0,0 z M 2.55,0.514 C 2.805,1.712 2.765,2.43 1.736,2.43 0.709,2.43 0.364,1.712 0.109,0.514 l 2.441,0 z"
               id="path5405"
               style="fill:#231f20;fill-opacity:1;fill-rule:nonzero;stroke:none" /></g><g
             transform="translate(188.52699,75.755005)"
             id="g5407"><path
               d="m 0,0 c -1.166,0 -1.506,0.567 -1.252,1.712 l 0.653,0 C -0.756,0.973 -0.689,0.48 0.135,0.48 c 0.621,0 0.995,0.355 1.123,0.954 0.3,1.413 -2.207,1.049 -1.827,2.836 0.212,0.996 0.972,1.349 1.914,1.349 1.07,0 1.256,-0.739 1.081,-1.562 l -0.632,0 C 1.908,4.741 1.803,5.106 1.075,5.106 0.615,5.106 0.187,4.805 0.084,4.324 -0.202,2.975 2.305,3.339 1.92,1.53 1.705,0.513 1.007,0 0,0"
               id="path5409"
               style="fill:#231f20;fill-opacity:1;fill-rule:nonzero;stroke:none" /></g><g
             transform="translate(192.6163,75.755005)"
             id="g5411"><path
               d="m 0,0 c -1.167,0 -1.507,0.567 -1.253,1.712 l 0.653,0 C -0.757,0.973 -0.69,0.48 0.134,0.48 c 0.621,0 0.996,0.355 1.123,0.954 0.3,1.413 -2.207,1.049 -1.827,2.836 0.212,0.996 0.972,1.349 1.914,1.349 1.07,0 1.256,-0.739 1.081,-1.562 l -0.632,0 C 1.907,4.741 1.802,5.106 1.074,5.106 0.614,5.106 0.186,4.805 0.084,4.324 -0.203,2.975 2.304,3.339 1.92,1.53 1.704,0.513 1.006,0 0,0"
               id="path5413"
               style="fill:#231f20;fill-opacity:1;fill-rule:nonzero;stroke:none" /></g></g></g><g
         transform="translate(202.0759,83.589096)"
         id="g5415"><path
           d="m 0,0 0.921,0 0.112,-6.775 0.021,0 L 4.143,0 4.817,0 1.259,-7.728 l -0.9,0 -0.091,6.872 -0.021,0 -3.056,-6.872 -0.856,0 -0.22,7.728 0.728,0 0.111,-6.829 0.021,0 L 0,0 z"
           id="path5417"
           style="fill:#231f20;fill-opacity:1;fill-rule:nonzero;stroke:none" /></g><g
         id="g5419"><g
           clip-path="url(#clipPath5423)"
           id="g5421"><g
             transform="translate(206.05321,77.981506)"
             id="g5427"><path
               d="m 0,0 0.274,1.284 c 0.145,0.684 0.458,2.108 2.31,2.108 1.852,0 1.56,-1.424 1.414,-2.108 L 3.725,0 C 3.427,-1.403 2.77,-2.227 1.39,-2.227 0.009,-2.227 -0.298,-1.403 0,0 M 2.743,-0.996 C 2.907,-0.728 3.135,0.245 3.209,0.588 3.548,2.182 3.534,2.879 2.474,2.879 1.415,2.879 1.107,2.182 0.768,0.588 0.695,0.245 0.509,-0.728 0.559,-0.996 c 0.027,-0.129 0.052,-0.718 0.94,-0.718 0.888,0 1.163,0.589 1.244,0.718"
               id="path5429"
               style="fill:#231f20;fill-opacity:1;fill-rule:nonzero;stroke:none" /></g><g
             transform="translate(212.2877,80.5392)"
             id="g5431"><path
               d="M 0,0 0.021,0 C 0.398,0.513 1.033,0.835 1.687,0.835 L 1.548,0.182 c -0.894,0.075 -1.61,-0.471 -1.804,-1.38 l -0.739,-3.48 -0.642,0 1.149,5.406 0.642,0 L 0,0 z"
               id="path5433"
               style="fill:#231f20;fill-opacity:1;fill-rule:nonzero;stroke:none" /></g></g></g><g
         transform="translate(213.5876,75.861206)"
         id="g5435"><path
           d="m 0,0 1.643,7.728 0.642,0 L 0.642,0 0,0 z"
           id="path5437"
           style="fill:#231f20;fill-opacity:1;fill-rule:nonzero;stroke:none" /></g><g
         id="g5439"><g
           clip-path="url(#clipPath5443)"
           id="g5441"><g
             transform="translate(218.72231,76.545593)"
             id="g5447"><path
               d="m 0,0 -0.024,-0.009 c -0.441,-0.515 -0.905,-0.782 -1.536,-0.782 -1.563,0 -1.319,1.551 -1.05,2.815 0.221,1.038 0.596,2.804 2.255,2.804 0.492,0 0.926,-0.225 1.17,-0.642 l 0.019,-0.01 0.609,2.867 0.643,0 L 0.67,0.387 C 0.556,-0.149 0.514,-0.502 0.507,-0.684 l -0.621,0 L 0,0 z m 0.293,1.532 0.205,0.963 c 0.068,0.321 0.386,1.82 -0.824,1.82 -1.155,0 -1.378,-1.049 -1.647,-2.312 -0.427,-2.012 -0.003,-2.281 0.693,-2.281 0.611,0 1.293,0.493 1.573,1.81"
               id="path5449"
               style="fill:#231f20;fill-opacity:1;fill-rule:nonzero;stroke:none" /></g></g></g><g
         transform="translate(221.0847,81.2668)"
         id="g5451"><path
           d="m 0,0 0.685,0 0.204,-4.731 0.021,0 2.151,4.731 0.793,0 0.193,-4.731 0.021,0 L 6.283,0 6.926,0 4.288,-5.406 l -0.802,0 -0.205,4.625 -0.022,0 -2.117,-4.625 -0.803,0 L 0,0 z"
           id="path5453"
           style="fill:#231f20;fill-opacity:1;fill-rule:nonzero;stroke:none" /></g><g
         transform="translate(227.66299,75.861206)"
         id="g5455"><path
           d="m 0,0 1.149,5.406 0.642,0 L 0.641,0 0,0 z m 1.395,6.914 0.172,0.814 0.793,0 -0.174,-0.814 -0.791,0 z"
           id="path5457"
           style="fill:#231f20;fill-opacity:1;fill-rule:nonzero;stroke:none" /></g><g
         transform="translate(232.76421,76.545593)"
         id="g5467"><path
           d="m 0,0 -0.024,-0.009 c -0.441,-0.515 -0.905,-0.782 -1.536,-0.782 -1.563,0 -1.319,1.551 -1.05,2.815 0.221,1.038 0.596,2.804 2.255,2.804 0.493,0 0.926,-0.225 1.17,-0.642 l 0.019,-0.01 0.609,2.867 0.643,0 L 0.67,0.387 C 0.557,-0.149 0.514,-0.502 0.507,-0.684 l -0.621,0 L 0,0 z m 0.293,1.532 0.205,0.963 c 0.068,0.321 0.386,1.82 -0.824,1.82 -1.155,0 -1.378,-1.049 -1.647,-2.312 -0.427,-2.012 -0.003,-2.281 0.693,-2.281 0.611,0 1.293,0.493 1.573,1.81"
           id="path5469"
           style="fill:#231f20;fill-opacity:1;fill-rule:nonzero;stroke:none" /></g><g
         transform="translate(235.6378,78.430496)"
         id="g5471"><path
           d="m 0,0 -0.088,-0.418 c -0.16,-0.749 -0.168,-1.744 0.849,-1.744 0.803,0 1.308,0.513 1.452,1.242 l 0.674,0 C 2.535,-2.227 1.733,-2.676 0.652,-2.676 c -0.931,0 -1.783,0.374 -1.435,2.013 l 0.282,1.326 C -0.169,2.226 0.637,2.944 1.847,2.944 3.708,2.944 3.424,1.605 3.083,0 L 0,0 z M 2.55,0.514 C 2.805,1.712 2.764,2.43 1.737,2.43 0.709,2.43 0.365,1.712 0.109,0.514 l 2.441,0 z"
           id="path5473"
           style="fill:#231f20;fill-opacity:1;fill-rule:nonzero;stroke:none" /></g></g></g></svg>